# xmcd
#
# Track frame offsets: 
#        150
#        19957
#        39656
#        56584
#
# Disc length: 1044 seconds
#
# Revision: 0
# Processed by: cddbd v1.5.2PL0 Copyright (c) Steve Scherf et al.
# Submitted via: ExactAudioCopyFreeDBPlugin 1.0
#
DISCID=2f041204
DTITLE=Zac Brown Band - The Grohl Sessions Vol. 1
DYEAR=2013
DGENRE=Country
TTITLE0=All Alright
TTITLE1=Let It Rain
TTITLE2=The Muse
TTITLE3=Day for the Dead
EXTD=
EXTT0=
EXTT1=
EXTT2=
EXTT3=
PLAYORDER=
